<?xml version="1.0" encoding="UTF-8"?>
<svg id="Capa_1" xmlns="http://www.w3.org/2000/svg" version="1.1" viewBox="0 0 1494.23 191.87">
  <!-- Generator: Adobe Illustrator 30.3.0, SVG Export Plug-In . SVG Version: 2.1.3 Build 182)  -->
  <path d="M278.64,182.25c-8.55,6.41-19.86,9.61-33.94,9.61-31.5,0-76.45-15.31-134.84-45.93-22.9,16.6-43.83,24.9-62.78,24.9-14.35,0-25.79-3.26-34.31-9.78S0,146.34,0,136.48c0-5.42,1.73-10.19,5.18-14.3,3.45-4.11,7.86-7.15,13.23-9.12,5.37-1.97,11.18-2.96,17.42-2.96,4.33,0,9.08.58,14.26,1.73s9.83,2.41,13.97,3.78c4.14,1.37,9.01,3.34,14.63,5.92,5.61,2.57,9.81,4.57,12.57,6,2.77,1.43,6.67,3.51,11.71,6.24,5.04,2.74,7.86,4.27,8.46,4.6,9.75-7.56,20.61-17.43,32.58-29.62s21.68-22.58,29.13-31.18c-3.34-.66-10.61-3.79-21.82-9.41-11.2-5.61-18.01-8.91-20.42-9.9-3.78,4.05-8.4,7.56-13.85,10.52s-10.59,4.44-15.41,4.44c-3.78,0-6.56-.94-8.34-2.83s-2.12-4.2-1.03-6.94c1.1-2.74,3.53-5.2,7.31-7.4,4.44-2.57,9.45-3.86,15.04-3.86,4.16,0,8.57.8,13.23,2.38,3.29-3.94,6-8.15,8.14-12.61s3.55-8.86,4.23-13.19c.68-4.33.3-8.38-1.15-12.16-1.45-3.78-4.01-6.74-7.68-8.87-4.93-2.9-11.09-4.35-18.49-4.35-7.83,0-15.87,1.56-24.12,4.68s-15.13,7.07-20.67,11.83c-4.55,4-8.42,8.55-11.63,13.64s-5.57,10.38-7.11,15.86c-1.53,5.48-2.05,11.04-1.56,16.68.49,5.64,1.94,10.94,4.36,15.9,2.41,4.96,6.16,9.55,11.26,13.76,5.09,4.22,11.26,7.59,18.49,10.11,6.63,2.25,12.52,3.37,17.67,3.37,5.42,0,9.26-1.34,11.5-4.03.33-.44.79-1.1,1.4-1.97.6-.88,1.12-1.57,1.56-2.1.44-.52.9-.89,1.4-1.11.66-.33,1.32-.49,1.97-.49,1.42,0,2.52.6,3.29,1.81.77,1.21.85,2.44.25,3.7-1.97,4.38-7.51,6.57-16.6,6.57-7.4,0-15.15-1.4-23.25-4.19-6.96-2.3-13.01-5.55-18.16-9.74-5.15-4.19-9.12-8.82-11.91-13.89s-4.62-10.56-5.46-16.48-.64-11.76.62-17.54,3.6-11.48,7.02-17.09c3.42-5.61,7.79-10.61,13.11-15,5.97-4.93,13.12-9.03,21.45-12.28C96.08,2.12,104.36.49,112.57.49c7.34,0,14.13,1.48,20.38,4.44,4.55,2.25,7.83,5.46,9.86,9.66,2.03,4.19,2.81,8.7,2.34,13.52s-1.78,9.71-3.94,14.67-5.03,9.49-8.59,13.6c2.85,1.21,7.4,3.42,13.64,6.66,6.24,3.23,11.93,6.04,17.05,8.42,5.12,2.38,8.97,3.82,11.55,4.31,9.64-10.74,18.28-19.87,25.92-27.4s15.21-13.87,22.72-19.02c13.69-9.59,26.87-14.38,39.52-14.38,6.85,0,12.04,1.47,15.57,4.4s4.92,7.02,4.15,12.28c-.77,5.26-3.81,11.04-9.12,17.34-8.16,9.75-19.39,17.49-33.69,23.21s-28.81,8.59-43.55,8.59c-4.66,0-9.15-.33-13.48-.99-8.77,9.48-19.53,20.23-32.29,32.25-12.76,12.02-24.21,21.57-34.35,28.64,5.81,3.29,12.37,6.78,19.68,10.48s16.13,7.81,26.46,12.32c10.33,4.52,20.41,8.53,30.24,12.04s20.05,6.46,30.65,8.87c10.6,2.41,19.93,3.62,27.98,3.62,11.23,0,19.97-2.3,26.21-6.9,4.49-3.4,8.01-7.68,10.56-12.86s3.64-10.12,3.29-14.83c-.36-4.71-2.15-8.11-5.38-10.19-.82-.66-2.14-1.3-3.94-1.93-1.81-.63-2.93-1.27-3.37-1.93-1.21-1.59-1.36-3.16-.45-4.73.9-1.56,2.23-2.12,3.99-1.68,2.46.28,4.9,2.41,7.31,6.41,1.26,2.63,2.19,5.55,2.79,8.75s.77,6.78.49,10.72c-.27,3.94-1.6,8-3.99,12.16-2.38,4.16-5.77,7.92-10.15,11.26v-.02ZM1.32,136.65c0,9.15,4.2,16.85,12.61,23.09,8.41,6.24,19.08,9.37,32.01,9.37,18.24,0,38.1-8.52,59.57-25.55-2.14-1.1-5.79-3.15-10.97-6.16-5.18-3.01-9.93-5.67-14.26-7.97s-9.27-4.71-14.83-7.23c-5.56-2.52-11.16-4.49-16.8-5.92-5.64-1.42-10.98-2.14-16.02-2.14s-9.89.82-14.54,2.47c-4.66,1.64-8.61,4.23-11.87,7.77-3.26,3.53-4.89,7.63-4.89,12.28h0ZM100.82,58.09c-2.85,1.59-4.85,3.45-6,5.59s-1.25,3.96-.29,5.46c.96,1.51,2.75,2.26,5.38,2.26,4.27,0,8.78-1.49,13.52-4.48,4.74-2.99,9-6.45,12.78-10.39-4.22-1.31-8.14-1.97-11.75-1.97-5.04,0-9.59,1.18-13.64,3.53ZM184.64,77.73c4.93.6,9.07.9,12.41.9,14.3,0,28.4-2.74,42.32-8.22,13.91-5.48,24.95-12.96,33.11-22.43,3.67-4.27,6.19-8.31,7.56-12.12,1.37-3.81,1.64-7.01.82-9.61s-2.52-4.66-5.09-6.16c-2.58-1.51-5.81-2.26-9.7-2.26-11.29,0-24.13,5.67-38.54,17.01-6.14,4.82-12.48,10.59-19.02,17.3-6.55,6.71-14.5,15.24-23.87,25.6h0Z"/>
  <path d="M212.11,164.26v-1.32c3.94,0,6.92-.7,8.91-2.09s3.82-4.23,5.46-8.5l43.71-114.3h.66l43.14,111.75c1.1,2.85,2.41,5.19,3.94,7.03s3.31,3.18,5.34,4.03,3.94,1.41,5.75,1.68c1.81.28,3.97.41,6.49.41v1.32h-42.07v-1.32c1.75,0,3.26-.07,4.52-.2,1.26-.14,2.51-.46,3.74-.99,1.23-.52,2.14-1.25,2.71-2.18.58-.93.85-2.22.82-3.86s-.48-3.62-1.36-5.92l-18.9-48.65c-10.35-.49-20.06,2.33-29.13,8.46-9.07,6.14-16.34,15.2-21.82,27.2l-6.08,15.86c-.71,1.81-1.07,3.36-1.07,4.64s.23,2.29.7,3c.46.71,1.23,1.27,2.3,1.68s2.16.67,3.29.78c1.12.11,2.53.16,4.23.16v1.32h-25.31.03ZM266.35,52.51l-28.92,75.76c5.37-9.37,12.26-16.53,20.67-21.49s17.21-7.27,26.42-6.94l-18.16-47.33h-.01Z"/>
  <path d="M343.87,164.26v-1.32c1.86,0,3.48-.07,4.85-.2,1.37-.14,2.81-.46,4.31-.99,1.51-.52,2.72-1.25,3.66-2.18.93-.93,1.7-2.22,2.3-3.86s.9-3.62.9-5.92V52.51c0-2.3-.3-4.27-.9-5.92s-1.37-2.93-2.3-3.86-2.15-1.66-3.66-2.18-2.95-.85-4.31-.99c-1.37-.14-2.99-.21-4.85-.21v-1.31h42.07v1.31c-1.86,0-3.48.07-4.85.21s-2.79.47-4.27.99c-1.48.52-2.69,1.25-3.62,2.18s-1.7,2.22-2.3,3.86c-.6,1.64-.9,3.62-.9,5.92v110.44h98.44c6.57,0,11.87-2.19,15.9-6.57s6.64-10.74,7.85-19.06h1.32l-4.68,26.95h-144.96ZM384.13,92.44c0-8,1.52-15.49,4.56-22.47,3.04-6.98,7.13-12.89,12.28-17.71s11.2-8.61,18.16-11.38,14.3-4.15,22.02-4.15,15.09,1.38,22.1,4.15,13.12,6.56,18.32,11.38,9.34,10.72,12.41,17.71c3.07,6.98,4.6,14.48,4.6,22.47,0,10.63-2.62,20.19-7.85,28.68s-12.22,15.05-20.95,19.68c-8.74,4.63-18.28,6.94-28.64,6.94s-19.86-2.31-28.51-6.94c-8.66-4.63-15.57-11.19-20.75-19.68s-7.77-18.05-7.77-28.68h.02ZM397.11,108.38c4.27,11.78,10.7,20.95,19.27,27.53,8.57,6.57,17.9,9.86,27.98,9.86,5.37,0,10.46-.9,15.28-2.71,8.22-3.01,14.94-7.9,20.17-14.67,5.23-6.76,8.4-14.6,9.49-23.5,1.1-8.9-.14-18.5-3.7-28.8-4.16-11.61-10.6-20.75-19.31-27.4-8.71-6.66-18.16-9.98-28.35-9.98-5.37,0-10.46.9-15.28,2.71-6.14,2.19-11.45,5.53-15.94,10.02-4.49,4.49-7.9,9.67-10.23,15.53-2.33,5.86-3.48,12.4-3.45,19.6s1.38,14.48,4.07,21.82h0Z"/>
  <path d="M591.02,184.31c-2.85.16-5.74-1.43-8.67-4.77-2.93-3.34-5.33-7.19-7.19-11.55-1.86-4.35-3.01-8.34-3.45-11.96-5.64-4.11-9.74-9.7-12.28-16.76-2.55-7.07-3.49-14.42-2.83-22.06s2.83-15.34,6.53-23.09,8.61-14.39,14.75-19.93c5.59-5.04,11.83-9.01,18.73-11.91,6.9-2.9,13.61-4.36,20.13-4.36,8.98,0,16.3,2.74,21.94,8.22,5.75-2.68,13.5-5.94,23.25-9.78,9.75-3.83,16.73-6.74,20.95-8.71.88-2.68,1.86-5.45,2.96-8.3,1.1-2.85,2.48-6.19,4.15-10.02,1.67-3.83,3.53-7.4,5.59-10.68,2.05-3.29,4.26-6.38,6.61-9.29,2.35-2.9,4.97-5.19,7.85-6.86,2.88-1.67,5.76-2.51,8.67-2.51,2.74,0,4.79.96,6.16,2.88,1.37,1.92,1.62,4.6.74,8.05-.93,3.56-2.67,7.15-5.22,10.76s-5.53,6.94-8.96,9.98c-3.42,3.04-6.83,5.74-10.23,8.09-3.4,2.36-6.79,4.47-10.19,6.33,0,.06-.26,1.14-.78,3.25s-1.08,4.38-1.68,6.82-1.4,5.53-2.38,9.29c-.99,3.75-2.03,7.55-3.12,11.38-1.1,3.84-2.29,7.92-3.57,12.24-1.29,4.33-2.66,8.56-4.11,12.7s-2.92,8.13-4.4,12c-1.48,3.86-3.04,7.49-4.68,10.89s-3.23,6.27-4.77,8.63c-6.79,10.3-15.48,18.38-26.05,24.24s-21.36,8.79-32.38,8.79-21.31-3.09-29.75-9.29c.71,4.6,2.16,8.68,4.35,12.24,2.19,3.56,4.96,5.7,8.3,6.41.49.11,1.32.22,2.47.33,1.15.11,2.05.26,2.71.45.66.19,1.23.45,1.73.78,1.7,1.2,2.29,2.66,1.77,4.35-.52,1.7-1.74,2.6-3.66,2.71v.02ZM570.97,152.34c-1.21-8.87-.25-17.64,2.88-26.29,3.12-8.65,7.83-16.68,14.13-24.08,11.12-13.09,26.95-24.6,47.5-34.51-4.33-4.33-10.27-6.49-17.83-6.49-6.3,0-12.79,1.45-19.47,4.35-6.68,2.9-12.54,6.82-17.58,11.75-5.2,4.99-9.49,10.86-12.86,17.63s-5.58,13.59-6.62,20.46c-1.04,6.88-.75,13.64.86,20.3,1.62,6.66,4.61,12.28,9,16.89h-.01ZM572.69,153.99c8.16,5.97,17.47,8.96,27.94,8.96s20.6-3.04,30.4-9.12c9.81-6.08,17.78-14.32,23.91-24.73,4.11-6.96,7.79-15.02,11.05-24.2,3.26-9.17,6.46-19.65,9.61-31.43,3.15-11.78,5.3-19.42,6.45-22.93-3.89,1.75-10.48,4.41-19.76,7.97-9.29,3.56-16.67,6.6-22.15,9.12,5.37,6.96,7.77,15.41,7.19,25.35s-3.88,20.01-9.9,30.2c-4,6.79-9.45,12.45-16.35,16.97-6.9,4.52-13.45,6.78-19.64,6.78-4.99,0-9.07-1.67-12.24-5.01-2.9-3.4-3.85-7.78-2.83-13.15,1.01-5.37,3.35-9.91,7.03-13.64,2.9-2.9,5.75-4.36,8.55-4.36h.66c1.92.28,3.08,1.27,3.49,3s-.29,3.14-2.1,4.23c-.66.38-2.38.66-5.18.82s-5.01.9-6.66,2.22c-2.52,1.92-4.05,5.05-4.6,9.41s.38,7.82,2.79,10.39c2.47,2.47,5.61,3.7,9.45,3.7,5.59,0,11.56-2.26,17.91-6.78s11.31-9.93,14.87-16.23c3.67-6.3,6.37-12.56,8.09-18.78,1.73-6.22,2.3-12.26,1.73-18.12-.58-5.86-2.45-10.96-5.63-15.28-20.38,9.53-36.18,20.82-47.41,33.85-7.01,8.16-11.86,16.65-14.54,25.47-2.69,8.82-3.4,17.26-2.14,25.31h.01ZM691.84,43.06c3.07-1.75,6.15-3.75,9.24-6,3.09-2.25,6.23-4.79,9.41-7.64,3.18-2.85,5.93-5.93,8.26-9.24s3.9-6.56,4.72-9.74c.71-2.68.68-4.75-.08-6.2-.77-1.45-2.03-2.18-3.78-2.18-3.45,0-7.29,2.19-11.5,6.57-6.08,6.36-11.5,17.83-16.27,34.43h0Z"/>
  <path d="M758.02,162.94c1.86,0,3.48-.07,4.85-.2,1.37-.14,2.81-.46,4.31-.99,1.51-.52,2.72-1.25,3.66-2.18.93-.93,1.7-2.22,2.3-3.86s.9-3.62.9-5.92V39.36h-31.31c-6.57,0-11.87,2.19-15.9,6.57s-6.64,10.74-7.85,19.06h-1.4l4.77-26.95h113.39l4.77,26.95h-1.4c-1.21-8.33-3.82-14.68-7.85-19.06-4.03-4.38-9.33-6.57-15.9-6.57h-31.31v110.44c0,2.3.3,4.27.9,5.92s1.37,2.93,2.3,3.86c.93.93,2.15,1.66,3.66,2.18,1.51.52,2.94.85,4.31.99s2.99.2,4.85.2v1.32h-42.07v-1.32h.02Z"/>
  <path d="M886.57,162.94c1.86,0,3.48-.07,4.85-.2,1.37-.14,2.81-.46,4.31-.99,1.51-.52,2.73-1.25,3.66-2.18s1.7-2.22,2.3-3.86.9-3.62.9-5.92v-38.7l-27.77-58.59c-1.37-2.85-2.92-5.19-4.64-7.03-1.73-1.83-3.61-3.18-5.67-4.03-2.05-.85-3.98-1.41-5.79-1.68s-3.97-.41-6.49-.41v-1.31h42.07v1.31c-1.48,0-2.75.06-3.82.16-1.07.11-2.18.32-3.33.62s-2.03.75-2.63,1.36-1.07,1.37-1.4,2.3-.34,2.14-.04,3.62.92,3.18,1.85,5.09l26.87,56.7,27.94-59.57c.82-1.81,1.3-3.35,1.44-4.64s.01-2.29-.37-3-1.08-1.27-2.09-1.68-2.07-.67-3.16-.78c-1.1-.11-2.49-.16-4.19-.16v-1.31h25.23v1.31c-3.94,0-6.97.7-9.08,2.1s-4.18,4.23-6.2,8.5l-28.6,60.81v39.03c0,2.3.3,4.27.9,5.92.6,1.64,1.37,2.93,2.3,3.86.93.93,2.14,1.66,3.61,2.18,1.48.52,2.9.85,4.27.99s2.98.2,4.85.2v1.32h-42.07v-1.34Z"/>
  <path d="M968.33,162.94c1.86,0,3.48-.07,4.85-.2,1.37-.14,2.81-.46,4.32-.99,1.5-.52,2.72-1.25,3.66-2.18.93-.93,1.7-2.22,2.3-3.86s.9-3.62.9-5.92V52.51c0-2.3-.3-4.27-.9-5.92-.6-1.64-1.37-2.93-2.3-3.86s-2.15-1.66-3.66-2.18c-1.51-.52-2.95-.85-4.32-.99-1.37-.14-2.99-.21-4.85-.21v-1.31h42.07v1.31c-1.86,0-3.48.07-4.85.21s-2.79.47-4.27.99c-1.48.52-2.68,1.25-3.61,2.18s-1.7,2.22-2.3,3.86-.9,3.62-.9,5.92v110.44h41.41c6.57,0,11.86-2.18,15.86-6.53s6.6-10.72,7.8-19.1h1.4l-4.77,26.95h-87.84v-1.32h0Z"/>
  <path d="M1077.67,162.94c1.86,0,3.48-.07,4.85-.2,1.37-.14,2.81-.46,4.32-.99,1.5-.52,2.72-1.25,3.66-2.18.93-.93,1.7-2.22,2.3-3.86.6-1.64.9-3.62.9-5.92V52.51c0-2.3-.3-4.27-.9-5.92-.6-1.64-1.37-2.93-2.3-3.86s-2.15-1.66-3.66-2.18-2.95-.85-4.32-.99c-1.37-.14-2.99-.21-4.85-.21v-1.31h42.07v1.31c-1.86,0-3.48.07-4.85.21s-2.79.47-4.27.99-2.68,1.25-3.61,2.18c-.93.93-1.7,2.22-2.3,3.86-.6,1.64-.9,3.62-.9,5.92v97.29c0,2.3.3,4.27.9,5.92.6,1.64,1.37,2.93,2.3,3.86.93.93,2.14,1.66,3.61,2.18,1.48.52,2.9.85,4.27.99s2.98.2,4.85.2v1.32h-42.07v-1.32h0Z"/>
  <path d="M1141.45,162.94c4.22,0,7.27-.67,9.16-2.01s2.83-4.15,2.83-8.42V42.24c-3.61-1.92-7.61-2.88-12-2.88v-1.31h25.31l65.74,107.23V49.79c0-4.27-.93-7.08-2.79-8.42-1.86-1.34-4.9-2.01-9.12-2.01v-1.31h25.23v1.31c-4.22,0-7.26.67-9.12,2.01s-2.79,4.15-2.79,8.42v114.46h-1.4l-68.61-111.75c-2.52-4.22-5.56-7.37-9.12-9.45v109.45c0,4.27.95,7.08,2.84,8.42s4.94,2.01,9.16,2.01v1.32h-25.31v-1.32h0Z"/>
  <path d="M1326.6,165.57c-12.05,0-23.06-2.67-33.03-8.01s-17.9-12.94-23.79-22.8-8.83-21.01-8.83-33.44,2.94-23.61,8.83-33.53c5.89-9.91,13.82-17.57,23.79-22.97,9.97-5.4,20.98-8.09,33.03-8.09,4.77,0,9.34.4,13.72,1.19,4.38.8,7.83,1.68,10.35,2.67,2.52.99,4.9,1.88,7.15,2.67,2.25.8,3.89,1.19,4.93,1.19,3.18,0,4.46-2.14,3.86-6.41h1.32l4.77,26.95h-1.4c-3.12-8.44-8.86-15.01-17.21-19.72s-17.68-7.07-27.98-7.07c-7.51,0-14.52,1.23-21.04,3.7-7.18,2.63-13.45,6.56-18.82,11.79s-9.42,11.31-12.16,18.24-4.19,14.52-4.35,22.76c-.17,8.24,1.4,16.72,4.68,25.43,3.29,9.15,7.85,17.05,13.68,23.71,5.83,6.66,12.31,11.64,19.43,14.96,7.12,3.31,14.6,4.97,22.43,4.97,6.9,0,13.37-1.08,19.39-3.25,6.02-2.16,10.75-5,14.17-8.5,3.42-3.51,5.14-7.18,5.14-11.01v-26.05c0-2.3-.3-4.27-.9-5.92-.6-1.64-1.37-2.93-2.3-3.86s-2.15-1.66-3.66-2.18-2.94-.85-4.31-.99c-1.37-.14-2.99-.2-4.85-.2v-1.32h42.07v1.32c-1.86,0-3.48.07-4.85.2-1.37.14-2.79.47-4.27.99s-2.69,1.25-3.62,2.18-1.7,2.22-2.3,3.86c-.6,1.64-.9,3.62-.9,5.92v49.3h-1.4c0-2.41-.86-4.22-2.59-5.42s-4.07-1.81-7.03-1.81c-4.27,0-8.63,1.01-13.06,3.04-8.71,3.67-18.08,5.51-28.1,5.51h.01Z"/>
  <path d="M1482.97,155.38c-7.51,6.79-16.71,10.19-27.61,10.19s-21.5-3.18-31.8-9.53c-3.34-2.14-5.97-3.2-7.89-3.2-2.63,0-3.64,2.14-3.04,6.41h-1.4l-4.68-26.95h1.31c3.18,8.55,9.64,16.01,19.39,22.39s19.34,9.57,28.76,9.57c5.86,0,11.32-1.27,16.39-3.82,5.07-2.55,9.13-6.15,12.2-10.81s4.6-9.83,4.6-15.53c0-8-2.94-14.76-8.83-20.3-5.89-5.53-15.41-10.65-28.55-15.37-9.42-3.34-15.75-5.78-18.98-7.31-13.04-6.08-20.35-13.67-21.94-22.76-.22-1.31-.33-2.68-.33-4.11,0-3.62.66-7.01,1.97-10.19,1.31-3.18,3.3-6.08,5.96-8.71,2.66-2.63,6.26-4.73,10.8-6.29,4.55-1.56,9.81-2.34,15.78-2.34,7.83,0,15.39,1.67,22.68,5.01,3.67,1.7,5.97,2.55,6.9,2.55s1.53-.48,1.81-1.44c.27-.96.25-2.56-.08-4.81h1.31l4.77,26.95h-1.4c-3.07-8.44-7.83-15.04-14.3-19.8-6.47-4.77-13.7-7.15-21.69-7.15-3.89,0-7.53.44-10.93,1.31-3.4.88-6.51,2.21-9.33,3.99-2.82,1.78-5.05,4.18-6.7,7.19-1.64,3.01-2.46,6.49-2.46,10.44,0,2.03.37,3.96,1.11,5.79.74,1.84,1.64,3.44,2.71,4.81,1.07,1.37,2.53,2.73,4.4,4.07,1.86,1.34,3.57,2.47,5.13,3.37s3.59,1.88,6.08,2.92,4.52,1.84,6.08,2.38,3.64,1.26,6.24,2.14,4.45,1.51,5.55,1.89c6.96,2.52,13,5.25,18.12,8.18s9.13,5.75,12.04,8.46c2.9,2.71,5.22,5.66,6.94,8.83,1.73,3.18,2.85,6.05,3.37,8.63.52,2.58.78,5.4.78,8.46,0,9.53-3.75,17.69-11.26,24.49h.02Z"/>
</svg>