<?xml version="1.0" encoding="UTF-8"?>
<svg id="Capa_1" data-name="Capa 1" xmlns="http://www.w3.org/2000/svg" viewBox="0 0 1809.18 792.73">
  <defs>
    <style>
      .cls-1 {
        fill: #1d1d1b;
      }
    </style>
  </defs>
  <g>
    <path d="M0,71.28h134.56v3.7c-17,0-30.31,10.35-30.31,51.75v406.52h116.07c39.92-.74,95.61,5.61,153.75-95.69l8.67,10.6-27.13,94.78H0v-3.7c17,0,30.31-10.35,30.31-51.75V126.73c0-41.4-13.31-51.75-30.31-51.75v-3.7Z"/>
    <path d="M934.22,71.28h134.56v3.7c-17,0-30.31,10.35-30.31,51.75v406.52h116.07c39.92-.74,95.61,5.61,153.75-95.69l8.67,10.6-27.13,94.78h-355.61v-3.7c17,0,30.31-10.35,30.31-51.75V126.73c0-41.4-13.31-51.75-30.31-51.75v-3.7Z"/>
    <path d="M392.57,542.94v-3.37c17,0,34.75-9.43,51.75-47.16l188.53-421.12h15.53l181.13,421.12c16.26,37.73,34.75,47.16,51.75,47.16v3.37h-138.25v-3.37c17,0,25.14-9.43,8.87-47.16l-40.66-94.33h-216.62l-42.14,94.33c-17,37.73-8.13,47.16,8.87,47.16v3.37h-68.76ZM708.26,391.33l-102.77-239.87-107.94,239.87h210.71Z"/>
    <g>
      <path d="M1742.05,137.03c-44.75-46.74-100.21-70.12-166.35-70.12-13.58,0-26.68.85-39.31,2.53l9.51,10.74c8.21-1.19,16.89-1.82,26.07-1.82,41.77,0,74.34,14.43,97.72,43.28,37.3,45.98,55.94,110.23,55.94,192.72,0,69.88-13.18,125.78-39.53,167.69-23.42,37.16-58.11,56.08-104.03,56.77,0,.05,0,.1,0,0-12.9-.18-25.44-1.71-38.04-6.13-15.57-5.46-29.87-14.67-41.06-26.83-22.69-24.66-31.77-59.55-30.93-93.05.81-32.24,10.35-64.51,28.93-90.87,23.91-33.93,49.55-51.45,123.29-51.04l8.48-10.81c-46.67-5.95-94.59-5.01-138.4,11.43-27.18,10.2-52.61,26.67-69.72,50.13-27.2,37.29-29.97,89.18-12.73,131.99,11.38,28.28,31.08,53.4,56.75,69.84,25.28,16.18,55.33,23.54,85.22,26.27,3.66.33,11.62.57,15.3.57,1.22,0,3,0,5.25-.04,1.42.02,2.84.04,4.27.04,64.64,0,119.23-23.15,163.73-69.45,44.5-46.29,66.76-102.93,66.76-169.9s-22.38-127.2-67.13-173.95Z"/>
      <path d="M1610.31,94.48l-37.96,32.14-64.01-72.28c-10.16-11.47-15.42-26.46-14.66-41.76l.35-7.09,133.52,12.99c11.19,1.09,22.01,4.58,31.73,10.24l16.98,9.9-29.31,26.58c2.11.6,2.12,1.23,4.2,1.88l32.66-27.66-30.38-39.42h-162.1l-30.38,39.42,111.4,94.4,44.08-37.34c-2.01-.72-4.05-1.4-6.13-2.01Z"/>
      <path d="M1491.39,79.61c-33.47,10.99-62.93,29.11-88.37,54.39-45.01,44.73-67.51,102.14-67.51,172.26,0,65.99,21.53,121.94,64.57,167.84-2.18-4.33-4.2-8.75-6.02-13.27-9.79-24.32-13.81-50.9-11.62-76.86,2.31-27.44,11.53-52.9,26.65-73.64,3.09-4.23,6.47-8.3,10.08-12.22,1.64-85.54,21.73-147.75,60.3-186.61,7.77-7.85,16.71-14.27,26.75-19.32l-14.84-12.58Z"/>
    </g>
  </g>
  <g>
    <g>
      <g>
        <path class="cls-1" d="M586.16,694.05c-21.35.74-36.68,12.01-35.11,25.72,1.29,10.41,14.04,17.64,30.52,17.64,18.63,0,38.4-8.82,45.71-20.61,21.5-33.47-59.04-38.68-37.11-72.47.14-.32.43-.53.57-.85-10.46-5.21-16.77-12.33-15.62-20.51l1.43.21c-.86,7.54,5.02,14.03,15.33,18.81,9.17-11.26,28.8-19.13,49.01-19.13,17.34,0,28.95,6.16,27.23,14.45-2.01,9.99-19.92,16.26-41.7,14.77-10.6-.74-20.49-2.76-28.8-5.74-18.77,30.5,61.33,35.39,37.4,71.62-9.31,14.13-27.23,21.47-53.16,21.47-20.35,0-35.11-7.76-36.11-18.92-1.43-14.88,16.77-27.2,40.12-27.52l.29,1.06ZM661.25,637.52c1.43-7.01-6.74-12.65-18.49-12.65-16.48,0-35.97,8.82-43.99,19.77,7.74,2.66,17.2,4.46,27.8,5.42,17.2,1.59,33.1-4.14,34.68-12.54Z"/>
        <path d="M687.07,674.58c8.99,0,17.65-.24,24.35-.61l-.82,2.42c-7.19.24-16.02.36-25.01.36l-23.7,35.63c-8.99,13.58-10.95,23.88,5.07,23.88,17.49,0,35.31-12.12,43.8-30.18l1.63.12c-9.97,21.94-26.15,33.21-47.4,33.21s-25.82-10.67-13.73-28.72l22.56-33.94c-6.21-.12-12.1-.36-17.65-.73l.98-2.18c5.72.36,11.93.61,18.14.73l8.17-12.36c3.27-4.73,11.28-8.85,18.14-9.21l.49.97c-1.96,1.33-4.58,4.85-8.01,10.18l-7.03,10.42Z"/>
        <path d="M727.68,699.98c-13.44,19.93-14.56,33.36-5.97,33.36s25.57-14.26,41.26-35.85l9.15-13.84c3.73-5.4,13.07-10.1,21.09-10.52l.37.97c-2.24,1.52-5.23,5.68-9.33,11.63l-43.31,65.62,1.49-.42c25.2-6.78,44.24-15.64,55.82-40.14l1.87.14c-11.39,25.06-26.69,33.78-56.56,41.81-1.31.42-2.8.83-4.29,1.25l-1.31,1.94c-15.87,24.09-39.58,36.82-52.64,36.82-2.8,0-5.23-.69-6.91-1.94-5.6-4.15-.37-12.74,13.25-20.9,8.03-4.84,20.16-9.69,32.67-13.84v-.28c.19,0,.19-.14.19-.14l.75-.97s0-.14.19-.14v-.28c.19,0,.19-.14.19-.14l22.03-33.36c-11.57,12.46-23.15,20.07-32.48,20.07-15.31,0-16.99-16.47.93-43.47l8.96-13.71c3.55-5.4,12.88-10.1,20.91-10.52l.37.97c-2.24,1.52-5.23,5.68-9.33,11.63l-9.33,14.26ZM692.96,771.82c-11.39,7.06-16.05,14.67-11.57,17.99.75.55,1.87.83,2.99.83,7.65,0,22.77-11.21,37.52-31.29-11.01,3.74-21.65,8.03-28.93,12.46Z"/>
        <path d="M810.45,736.27c11.44,0,27.13-8.73,37.27-30.18l1.63.12c-9.97,21.94-23.86,33.21-41.68,33.21-16.67,0-22.39-9.94-5.88-34.42l25.17-37.21c13.73-20.24,28.44-35.27,47.56-41.33l.82.97c-11.11,6.18-23.37,21.09-37.76,42.79l-24.19,36.48c-13.08,19.27-15.53,29.57-2.94,29.57Z"/>
        <path d="M852.45,716.39c-6.37,9.58-7.85,19.88,3.11,19.88s24.52-8.73,34.65-30.18l1.64.12c-9.97,21.94-22.56,33.21-37.27,33.21-17.49,0-22.56-9.94-12.75-24.6l21.41-32.48c3.11-5.21,11.77-8.85,18.14-9.21l.33.85c-2.12,1.45-5.07,5.45-8.17,10.18l-21.08,32.24ZM905.41,640.03l1.14,1.33c-6.86,4-18.96,12.97-23.37,18.3l-2.12-.73c-.33-10.42,11.12-19.39,24.35-18.91Z"/>
        <path d="M882.85,738.21l-1.8-.12c-3.11-6.43-3.6-12.49,0-18.67l23.7-37.09c3.43-5.21,11.93-8.85,18.31-9.21l.49.85c-2.29,1.45-5.23,5.45-8.17,10.18l-8.01,12.61c17.82-17.45,36.61-24.36,45.6-24.36s10.95,7.15,5.56,15.03l-20.43,28.97c-6.54,9.45-8.17,19.88,2.78,19.88s24.52-8.73,34.65-30.18l1.47.12c-9.81,21.94-22.39,33.21-37.1,33.21-17.65,0-22.56-10.3-12.42-24.6l20.59-29.45c2.61-3.27,3.27-8.61-1.47-8.61-6.21,0-29.91,9.09-51.65,39.51l-1.96,2.91c-4.41,6.79-7.36,12.36-10.13,19.03Z"/>
      </g>
      <path d="M1109.31,706.11c-4.74,17.29-14.86,27.02-28.3,31.25,8.32-6.4,9.48-19.85,2.18-36.63-5.89-13.7,1.92-27.41,16.78-29.45l-.13-.77c-7.3,0-13.32,1.79-17.8,4.99-5.79,3.44-10.34,8.81-14.08,14.32-4.31,6.37-7.09,13.59-10.62,20.39-3.35,6.46-7.66,12.22-13.11,17.06-3.54,3.14-7.47,5.84-11.67,8.01-6.88,3.55-14.3,5.94-21.76,7.95l-1.35.37,38.68-59.11c3.2-4.86,6.05-8.98,8.24-10.47l-.34-.87c-6.39.37-14.97,4.12-18.67,9.48l-2.35,3.62c0-8.11-6.39-14.22-14.63-14.22-15.47,0-33.13,12.35-43.56,30.3-14.13,24.94-12.28,39.03,1.34,39.03,9.08,0,22.2-8.23,34.48-21.32l-17.32,26.06c-.17.12-.17.37-.34.5l-.67,1c-.17.12-.17.37-.34.5-10.93,3.62-21.86,7.86-29.09,12.22-12.28,7.36-16.82,15.09-12.11,18.83,1.51,1.12,3.7,1.75,6.39,1.75,11.77,0,33.13-11.47,47.59-33.17l1.18-1.87c.34-.12.67-.12.84-.25l2.02-.5c.17-.12.5-.12.84-.25,3.14-1.16,6.53-1.82,9.73-2.87,2.88-.95,5.73-1.99,8.51-3.18,4.81-2.07,9.43-4.62,13.53-7.9,11.98-9.61,16.94-24.76,24.3-37.69.96-1.7,1.92-3.64,3.22-5.11.71-.99,1.46-1.95,2.25-2.88.68-.8,1.84-1.65,2.33-2.56-3.46,6.4-3.59,14.6.38,23.44,7.56,17.16,2.95,30.86-10.76,30.86-7.56,0-10.76-5.64-7.43-13.96l-.9-.13c-4.99,10.88-1.02,18.44,10.89,18.44h.9c1.54,0,3.07-.26,4.61-.51,19.21-2.82,32.02-13.19,37.39-34.06l-1.28-.64ZM984.06,734.64c-7.74,0-6.22-11.47,3.87-30.05,8.91-16.09,22.7-27.31,33.13-27.31,5.89,0,10.59,3.87,12.61,10.97l-8.91,13.34c-14.63,19.7-33.13,33.05-40.7,33.05ZM958.5,779.03c-1.01,0-2.02-.25-2.69-.75-4.04-2.99.17-9.85,10.43-16.21,6.22-3.99,15.98-7.86,25.9-11.22-13.12,18.08-26.74,28.18-33.63,28.18Z"/>
    </g>
    <g>
      <g>
        <path d="M586.16,694.05c-21.35.74-36.68,12.01-35.11,25.72,1.29,10.41,14.04,17.64,30.52,17.64,18.63,0,38.4-8.82,45.71-20.61,21.5-33.47-59.04-38.68-37.11-72.47.14-.32.43-.53.57-.85-10.46-5.21-16.77-12.33-15.62-20.51l1.43.21c-.86,7.54,5.02,14.03,15.33,18.81,9.17-11.26,28.8-19.13,49.01-19.13,17.34,0,28.95,6.16,27.23,14.45-2.01,9.99-19.92,16.26-41.7,14.77-10.6-.74-20.49-2.76-28.8-5.74-18.77,30.5,61.33,35.39,37.4,71.62-9.31,14.13-27.23,21.47-53.16,21.47-20.35,0-35.11-7.76-36.11-18.92-1.43-14.88,16.77-27.2,40.12-27.52l.29,1.06ZM661.25,637.52c1.43-7.01-6.74-12.65-18.49-12.65-16.48,0-35.97,8.82-43.99,19.77,7.74,2.66,17.2,4.46,27.8,5.42,17.2,1.59,33.1-4.14,34.68-12.54Z"/>
        <path d="M687.07,674.58c8.99,0,17.65-.24,24.35-.61l-.82,2.42c-7.19.24-16.02.36-25.01.36l-23.7,35.63c-8.99,13.58-10.95,23.88,5.07,23.88,17.49,0,35.31-12.12,43.8-30.18l1.63.12c-9.97,21.94-26.15,33.21-47.4,33.21s-25.82-10.67-13.73-28.72l22.56-33.94c-6.21-.12-12.1-.36-17.65-.73l.98-2.18c5.72.36,11.93.61,18.14.73l8.17-12.36c3.27-4.73,11.28-8.85,18.14-9.21l.49.97c-1.96,1.33-4.58,4.85-8.01,10.18l-7.03,10.42Z"/>
        <path d="M727.68,699.98c-13.44,19.93-14.56,33.36-5.97,33.36s25.57-14.26,41.26-35.85l9.15-13.84c3.73-5.4,13.07-10.1,21.09-10.52l.37.97c-2.24,1.52-5.23,5.68-9.33,11.63l-43.31,65.62,1.49-.42c25.2-6.78,44.24-15.64,55.82-40.14l1.87.14c-11.39,25.06-26.69,33.78-56.56,41.81-1.31.42-2.8.83-4.29,1.25l-1.31,1.94c-15.87,24.09-39.58,36.82-52.64,36.82-2.8,0-5.23-.69-6.91-1.94-5.6-4.15-.37-12.74,13.25-20.9,8.03-4.84,20.16-9.69,32.67-13.84v-.28c.19,0,.19-.14.19-.14l.75-.97s0-.14.19-.14v-.28c.19,0,.19-.14.19-.14l22.03-33.36c-11.57,12.46-23.15,20.07-32.48,20.07-15.31,0-16.99-16.47.93-43.47l8.96-13.71c3.55-5.4,12.88-10.1,20.91-10.52l.37.97c-2.24,1.52-5.23,5.68-9.33,11.63l-9.33,14.26ZM692.96,771.82c-11.39,7.06-16.05,14.67-11.57,17.99.75.55,1.87.83,2.99.83,7.65,0,22.77-11.21,37.52-31.29-11.01,3.74-21.65,8.03-28.93,12.46Z"/>
        <path d="M810.45,736.27c11.44,0,27.13-8.73,37.27-30.18l1.63.12c-9.97,21.94-23.86,33.21-41.68,33.21-16.67,0-22.39-9.94-5.88-34.42l25.17-37.21c13.73-20.24,28.44-35.27,47.56-41.33l.82.97c-11.11,6.18-23.37,21.09-37.76,42.79l-24.19,36.48c-13.08,19.27-15.53,29.57-2.94,29.57Z"/>
        <path d="M852.45,716.39c-6.37,9.58-7.85,19.88,3.11,19.88s24.52-8.73,34.65-30.18l1.64.12c-9.97,21.94-22.56,33.21-37.27,33.21-17.49,0-22.56-9.94-12.75-24.6l21.41-32.48c3.11-5.21,11.77-8.85,18.14-9.21l.33.85c-2.12,1.45-5.07,5.45-8.17,10.18l-21.08,32.24ZM905.41,640.03l1.14,1.33c-6.86,4-18.96,12.97-23.37,18.3l-2.12-.73c-.33-10.42,11.12-19.39,24.35-18.91Z"/>
        <path d="M882.85,738.21l-1.8-.12c-3.11-6.43-3.6-12.49,0-18.67l23.7-37.09c3.43-5.21,11.93-8.85,18.31-9.21l.49.85c-2.29,1.45-5.23,5.45-8.17,10.18l-8.01,12.61c17.82-17.45,36.61-24.36,45.6-24.36s10.95,7.15,5.56,15.03l-20.43,28.97c-6.54,9.45-8.17,19.88,2.78,19.88s24.52-8.73,34.65-30.18l1.47.12c-9.81,21.94-22.39,33.21-37.1,33.21-17.65,0-22.56-10.3-12.42-24.6l20.59-29.45c2.61-3.27,3.27-8.61-1.47-8.61-6.21,0-29.91,9.09-51.65,39.51l-1.96,2.91c-4.41,6.79-7.36,12.36-10.13,19.03Z"/>
      </g>
      <path d="M1109.31,706.11c-4.74,17.29-14.86,27.02-28.3,31.25,8.32-6.4,9.48-19.85,2.18-36.63-5.89-13.7,1.92-27.41,16.78-29.45l-.13-.77c-7.3,0-13.32,1.79-17.8,4.99-5.79,3.44-10.34,8.81-14.08,14.32-4.31,6.37-7.09,13.59-10.62,20.39-3.35,6.46-7.66,12.22-13.11,17.06-3.54,3.14-7.47,5.84-11.67,8.01-6.88,3.55-14.3,5.94-21.76,7.95l-1.35.37,38.68-59.11c3.2-4.86,6.05-8.98,8.24-10.47l-.34-.87c-6.39.37-14.97,4.12-18.67,9.48l-2.35,3.62c0-8.11-6.39-14.22-14.63-14.22-15.47,0-33.13,12.35-43.56,30.3-14.13,24.94-12.28,39.03,1.34,39.03,9.08,0,22.2-8.23,34.48-21.32l-17.32,26.06c-.17.12-.17.37-.34.5l-.67,1c-.17.12-.17.37-.34.5-10.93,3.62-21.86,7.86-29.09,12.22-12.28,7.36-16.82,15.09-12.11,18.83,1.51,1.12,3.7,1.75,6.39,1.75,11.77,0,33.13-11.47,47.59-33.17l1.18-1.87c.34-.12.67-.12.84-.25l2.02-.5c.17-.12.5-.12.84-.25,3.14-1.16,6.53-1.82,9.73-2.87,2.88-.95,5.73-1.99,8.51-3.18,4.81-2.07,9.43-4.62,13.53-7.9,11.98-9.61,16.94-24.76,24.3-37.69.96-1.7,1.92-3.64,3.22-5.11.71-.99,1.46-1.95,2.25-2.88.68-.8,1.84-1.65,2.33-2.56-3.46,6.4-3.59,14.6.38,23.44,7.56,17.16,2.95,30.86-10.76,30.86-7.56,0-10.76-5.64-7.43-13.96l-.9-.13c-4.99,10.88-1.02,18.44,10.89,18.44h.9c1.54,0,3.07-.26,4.61-.51,19.21-2.82,32.02-13.19,37.39-34.06l-1.28-.64ZM984.06,734.64c-7.74,0-6.22-11.47,3.87-30.05,8.91-16.09,22.7-27.31,33.13-27.31,5.89,0,10.59,3.87,12.61,10.97l-8.91,13.34c-14.63,19.7-33.13,33.05-40.7,33.05ZM958.5,779.03c-1.01,0-2.02-.25-2.69-.75-4.04-2.99.17-9.85,10.43-16.21,6.22-3.99,15.98-7.86,25.9-11.22-13.12,18.08-26.74,28.18-33.63,28.18Z"/>
    </g>
  </g>
</svg>